<svg id="visual" viewBox="0 0 1980 1080" width="1980" height="1080" xmlns="http://www.w3.org/2000/svg" xmlns:xlink="http://www.w3.org/1999/xlink" version="1.1"><rect x="0" y="0" width="1980" height="1080" fill="#000000"></rect><defs><linearGradient id="grad1_0" x1="45.5%" y1="100%" x2="100%" y2="0%"><stop offset="13.333333333333334%" stop-color="#00ffd4" stop-opacity="1"></stop><stop offset="86.66666666666667%" stop-color="#00ffd4" stop-opacity="1"></stop></linearGradient></defs><defs><linearGradient id="grad1_1" x1="45.5%" y1="100%" x2="100%" y2="0%"><stop offset="13.333333333333334%" stop-color="#00ffd4" stop-opacity="1"></stop><stop offset="86.66666666666667%" stop-color="#00d3ab" stop-opacity="1"></stop></linearGradient></defs><defs><linearGradient id="grad1_2" x1="45.5%" y1="100%" x2="100%" y2="0%"><stop offset="13.333333333333334%" stop-color="#00a983" stop-opacity="1"></stop><stop offset="86.66666666666667%" stop-color="#00d3ab" stop-opacity="1"></stop></linearGradient></defs><defs><linearGradient id="grad1_3" x1="45.5%" y1="100%" x2="100%" y2="0%"><stop offset="13.333333333333334%" stop-color="#00a983" stop-opacity="1"></stop><stop offset="86.66666666666667%" stop-color="#00805e" stop-opacity="1"></stop></linearGradient></defs><defs><linearGradient id="grad1_4" x1="45.5%" y1="100%" x2="100%" y2="0%"><stop offset="13.333333333333334%" stop-color="#00593b" stop-opacity="1"></stop><stop offset="86.66666666666667%" stop-color="#00805e" stop-opacity="1"></stop></linearGradient></defs><defs><linearGradient id="grad1_5" x1="45.5%" y1="100%" x2="100%" y2="0%"><stop offset="13.333333333333334%" stop-color="#00593b" stop-opacity="1"></stop><stop offset="86.66666666666667%" stop-color="#00351b" stop-opacity="1"></stop></linearGradient></defs><defs><linearGradient id="grad1_6" x1="45.5%" y1="100%" x2="100%" y2="0%"><stop offset="13.333333333333334%" stop-color="#000000" stop-opacity="1"></stop><stop offset="86.66666666666667%" stop-color="#00351b" stop-opacity="1"></stop></linearGradient></defs><defs><linearGradient id="grad2_0" x1="0%" y1="100%" x2="54.5%" y2="0%"><stop offset="13.333333333333334%" stop-color="#00ffd4" stop-opacity="1"></stop><stop offset="86.66666666666667%" stop-color="#00ffd4" stop-opacity="1"></stop></linearGradient></defs><defs><linearGradient id="grad2_1" x1="0%" y1="100%" x2="54.5%" y2="0%"><stop offset="13.333333333333334%" stop-color="#00d3ab" stop-opacity="1"></stop><stop offset="86.66666666666667%" stop-color="#00ffd4" stop-opacity="1"></stop></linearGradient></defs><defs><linearGradient id="grad2_2" x1="0%" y1="100%" x2="54.5%" y2="0%"><stop offset="13.333333333333334%" stop-color="#00d3ab" stop-opacity="1"></stop><stop offset="86.66666666666667%" stop-color="#00a983" stop-opacity="1"></stop></linearGradient></defs><defs><linearGradient id="grad2_3" x1="0%" y1="100%" x2="54.5%" y2="0%"><stop offset="13.333333333333334%" stop-color="#00805e" stop-opacity="1"></stop><stop offset="86.66666666666667%" stop-color="#00a983" stop-opacity="1"></stop></linearGradient></defs><defs><linearGradient id="grad2_4" x1="0%" y1="100%" x2="54.5%" y2="0%"><stop offset="13.333333333333334%" stop-color="#00805e" stop-opacity="1"></stop><stop offset="86.66666666666667%" stop-color="#00593b" stop-opacity="1"></stop></linearGradient></defs><defs><linearGradient id="grad2_5" x1="0%" y1="100%" x2="54.5%" y2="0%"><stop offset="13.333333333333334%" stop-color="#00351b" stop-opacity="1"></stop><stop offset="86.66666666666667%" stop-color="#00593b" stop-opacity="1"></stop></linearGradient></defs><defs><linearGradient id="grad2_6" x1="0%" y1="100%" x2="54.5%" y2="0%"><stop offset="13.333333333333334%" stop-color="#00351b" stop-opacity="1"></stop><stop offset="86.66666666666667%" stop-color="#000000" stop-opacity="1"></stop></linearGradient></defs><g transform="translate(1980, 1080)"><path d="M-432 0C-400.4 -23.2 -368.8 -46.5 -359 -71.4C-349.1 -96.3 -361.1 -122.9 -364 -150.8C-367 -178.6 -360.9 -207.8 -345.9 -231.1C-330.9 -254.4 -306.9 -272 -280.7 -280.7C-254.5 -289.5 -226.1 -289.5 -208.9 -312.6C-191.7 -335.8 -185.7 -382.2 -165.3 -399.1C-145 -416 -110.3 -403.5 -80.4 -404.1C-50.4 -404.7 -25.2 -418.3 0 -432L0 0Z" fill="#002909"></path><path d="M-370.3 0C-343.2 -19.9 -316.1 -39.8 -307.7 -61.2C-299.3 -82.6 -309.5 -105.4 -312 -129.2C-314.5 -153.1 -309.3 -178.1 -296.5 -198.1C-283.6 -218.1 -263.1 -233.1 -240.6 -240.6C-218.2 -248.1 -193.8 -248.1 -179.1 -268C-164.3 -287.8 -159.1 -327.6 -141.7 -342.1C-124.3 -356.6 -94.6 -345.9 -68.9 -346.4C-43.2 -346.8 -21.6 -358.6 0 -370.3L0 0Z" fill="#00462b"></path><path d="M-308.6 0C-286 -16.6 -263.4 -33.2 -256.4 -51C-249.4 -68.8 -257.9 -87.8 -260 -107.7C-262.1 -127.6 -257.8 -148.4 -247.1 -165.1C-236.3 -181.7 -219.2 -194.3 -200.5 -200.5C-181.8 -206.8 -161.5 -206.8 -149.2 -223.3C-136.9 -239.9 -132.6 -273 -118.1 -285.1C-103.6 -297.2 -78.8 -288.2 -57.4 -288.6C-36 -289 -18 -298.8 0 -308.6L0 0Z" fill="#006c4c"></path><path d="M-246.9 0C-228.8 -13.3 -210.7 -26.6 -205.1 -40.8C-199.5 -55 -206.3 -70.2 -208 -86.2C-209.7 -102.1 -206.2 -118.7 -197.7 -132.1C-189.1 -145.4 -175.4 -155.4 -160.4 -160.4C-145.4 -165.4 -129.2 -165.4 -119.4 -178.6C-109.5 -191.9 -106.1 -218.4 -94.5 -228.1C-82.8 -237.7 -63 -230.6 -45.9 -230.9C-28.8 -231.2 -14.4 -239 0 -246.9L0 0Z" fill="#009470"></path><path d="M-185.1 0C-171.6 -10 -158.1 -19.9 -153.8 -30.6C-149.6 -41.3 -154.7 -52.7 -156 -64.6C-157.3 -76.6 -154.7 -89.1 -148.2 -99.1C-141.8 -109 -131.5 -116.6 -120.3 -120.3C-109.1 -124.1 -96.9 -124.1 -89.5 -134C-82.1 -143.9 -79.6 -163.8 -70.9 -171C-62.1 -178.3 -47.3 -172.9 -34.4 -173.2C-21.6 -173.4 -10.8 -179.3 0 -185.1L0 0Z" fill="#00be97"></path><path d="M-123.4 0C-114.4 -6.6 -105.4 -13.3 -102.6 -20.4C-99.8 -27.5 -103.2 -35.1 -104 -43.1C-104.8 -51 -103.1 -59.4 -98.8 -66C-94.5 -72.7 -87.7 -77.7 -80.2 -80.2C-72.7 -82.7 -64.6 -82.7 -59.7 -89.3C-54.8 -95.9 -53 -109.2 -47.2 -114C-41.4 -118.9 -31.5 -115.3 -23 -115.5C-14.4 -115.6 -7.2 -119.5 0 -123.4L0 0Z" fill="#00e9bf"></path><path d="M-61.7 0C-57.2 -3.3 -52.7 -6.6 -51.3 -10.2C-49.9 -13.8 -51.6 -17.6 -52 -21.5C-52.4 -25.5 -51.6 -29.7 -49.4 -33C-47.3 -36.3 -43.8 -38.9 -40.1 -40.1C-36.4 -41.4 -32.3 -41.4 -29.8 -44.7C-27.4 -48 -26.5 -54.6 -23.6 -57C-20.7 -59.4 -15.8 -57.6 -11.5 -57.7C-7.2 -57.8 -3.6 -59.8 0 -61.7L0 0Z" fill="#00ffd4"></path></g><g transform="translate(0, 0)"><path d="M432 0C413.1 26.7 394.1 53.4 376.6 74.9C359.1 96.4 343.1 112.8 344.6 142.7C346.1 172.7 365.2 216.4 350 233.9C334.9 251.4 285.4 242.9 266.6 266.6C247.7 290.3 259.5 346.2 240 359.2C220.5 372.2 169.8 342.3 136.6 329.8C103.5 317.4 87.9 322.4 68.1 342.3C48.3 362.2 24.1 397.1 0 432L0 0Z" fill="#002909"></path><path d="M370.3 0C354 22.9 337.8 45.8 322.8 64.2C307.8 82.7 294.1 96.7 295.4 122.3C296.7 148 313.1 185.4 300 200.5C287 215.5 244.6 208.2 228.5 228.5C212.3 248.8 222.4 296.7 205.7 307.9C189 319 145.5 293.4 117.1 282.7C88.7 272 75.4 276.3 58.4 293.4C41.4 310.5 20.7 340.4 0 370.3L0 0Z" fill="#00462b"></path><path d="M308.6 0C295 19.1 281.5 38.1 269 53.5C256.5 68.9 245.1 80.5 246.1 102C247.2 123.4 260.9 154.5 250 167.1C239.2 179.6 203.9 173.5 190.4 190.4C177 207.3 185.4 247.3 171.4 256.6C157.5 265.9 121.3 244.5 97.6 235.6C73.9 226.7 62.8 230.3 48.6 244.5C34.5 258.7 17.2 283.7 0 308.6L0 0Z" fill="#006c4c"></path><path d="M246.9 0C236 15.3 225.2 30.5 215.2 42.8C205.2 55.1 196 64.4 196.9 81.6C197.8 98.7 208.7 123.6 200 133.7C191.4 143.7 163.1 138.8 152.3 152.3C141.6 165.9 148.3 197.8 137.1 205.3C126 212.7 97 195.6 78.1 188.5C59.1 181.4 50.2 184.2 38.9 195.6C27.6 207 13.8 226.9 0 246.9L0 0Z" fill="#009470"></path><path d="M185.1 0C177 11.4 168.9 22.9 161.4 32.1C153.9 41.3 147 48.3 147.7 61.2C148.3 74 156.5 92.7 150 100.2C143.5 107.8 122.3 104.1 114.2 114.2C106.2 124.4 111.2 148.4 102.9 153.9C94.5 159.5 72.8 146.7 58.6 141.4C44.3 136 37.7 138.2 29.2 146.7C20.7 155.2 10.3 170.2 0 185.1L0 0Z" fill="#00be97"></path><path d="M123.4 0C118 7.6 112.6 15.3 107.6 21.4C102.6 27.6 98 32.2 98.5 40.8C98.9 49.3 104.4 61.8 100 66.8C95.7 71.8 81.5 69.4 76.2 76.2C70.8 82.9 74.1 98.9 68.6 102.6C63 106.3 48.5 97.8 39 94.2C29.6 90.7 25.1 92.1 19.5 97.8C13.8 103.5 6.9 113.5 0 123.4L0 0Z" fill="#00e9bf"></path><path d="M61.7 0C59 3.8 56.3 7.6 53.8 10.7C51.3 13.8 49 16.1 49.2 20.4C49.4 24.7 52.2 30.9 50 33.4C47.8 35.9 40.8 34.7 38.1 38.1C35.4 41.5 37.1 49.5 34.3 51.3C31.5 53.2 24.3 48.9 19.5 47.1C14.8 45.3 12.6 46.1 9.7 48.9C6.9 51.7 3.4 56.7 0 61.7L0 0Z" fill="#00ffd4"></path></g></svg>