<svg id="visual" viewBox="0 0 1980 1080" width="1980" height="1080" xmlns="http://www.w3.org/2000/svg" xmlns:xlink="http://www.w3.org/1999/xlink" version="1.1"><rect x="0" y="0" width="1980" height="1080" fill="#000000"></rect><defs><linearGradient id="grad1_0" x1="45.5%" y1="0%" x2="100%" y2="100%"><stop offset="13.333333333333334%" stop-color="#00ffd4" stop-opacity="1"></stop><stop offset="86.66666666666667%" stop-color="#00ffd4" stop-opacity="1"></stop></linearGradient></defs><defs><linearGradient id="grad1_1" x1="45.5%" y1="0%" x2="100%" y2="100%"><stop offset="13.333333333333334%" stop-color="#00ffd4" stop-opacity="1"></stop><stop offset="86.66666666666667%" stop-color="#00d3ab" stop-opacity="1"></stop></linearGradient></defs><defs><linearGradient id="grad1_2" x1="45.5%" y1="0%" x2="100%" y2="100%"><stop offset="13.333333333333334%" stop-color="#00a983" stop-opacity="1"></stop><stop offset="86.66666666666667%" stop-color="#00d3ab" stop-opacity="1"></stop></linearGradient></defs><defs><linearGradient id="grad1_3" x1="45.5%" y1="0%" x2="100%" y2="100%"><stop offset="13.333333333333334%" stop-color="#00a983" stop-opacity="1"></stop><stop offset="86.66666666666667%" stop-color="#00805e" stop-opacity="1"></stop></linearGradient></defs><defs><linearGradient id="grad1_4" x1="45.5%" y1="0%" x2="100%" y2="100%"><stop offset="13.333333333333334%" stop-color="#00593b" stop-opacity="1"></stop><stop offset="86.66666666666667%" stop-color="#00805e" stop-opacity="1"></stop></linearGradient></defs><defs><linearGradient id="grad1_5" x1="45.5%" y1="0%" x2="100%" y2="100%"><stop offset="13.333333333333334%" stop-color="#00593b" stop-opacity="1"></stop><stop offset="86.66666666666667%" stop-color="#00351b" stop-opacity="1"></stop></linearGradient></defs><defs><linearGradient id="grad1_6" x1="45.5%" y1="0%" x2="100%" y2="100%"><stop offset="13.333333333333334%" stop-color="#000000" stop-opacity="1"></stop><stop offset="86.66666666666667%" stop-color="#00351b" stop-opacity="1"></stop></linearGradient></defs><defs><linearGradient id="grad2_0" x1="0%" y1="0%" x2="54.5%" y2="100%"><stop offset="13.333333333333334%" stop-color="#00ffd4" stop-opacity="1"></stop><stop offset="86.66666666666667%" stop-color="#00ffd4" stop-opacity="1"></stop></linearGradient></defs><defs><linearGradient id="grad2_1" x1="0%" y1="0%" x2="54.5%" y2="100%"><stop offset="13.333333333333334%" stop-color="#00d3ab" stop-opacity="1"></stop><stop offset="86.66666666666667%" stop-color="#00ffd4" stop-opacity="1"></stop></linearGradient></defs><defs><linearGradient id="grad2_2" x1="0%" y1="0%" x2="54.5%" y2="100%"><stop offset="13.333333333333334%" stop-color="#00d3ab" stop-opacity="1"></stop><stop offset="86.66666666666667%" stop-color="#00a983" stop-opacity="1"></stop></linearGradient></defs><defs><linearGradient id="grad2_3" x1="0%" y1="0%" x2="54.5%" y2="100%"><stop offset="13.333333333333334%" stop-color="#00805e" stop-opacity="1"></stop><stop offset="86.66666666666667%" stop-color="#00a983" stop-opacity="1"></stop></linearGradient></defs><defs><linearGradient id="grad2_4" x1="0%" y1="0%" x2="54.5%" y2="100%"><stop offset="13.333333333333334%" stop-color="#00805e" stop-opacity="1"></stop><stop offset="86.66666666666667%" stop-color="#00593b" stop-opacity="1"></stop></linearGradient></defs><defs><linearGradient id="grad2_5" x1="0%" y1="0%" x2="54.5%" y2="100%"><stop offset="13.333333333333334%" stop-color="#00351b" stop-opacity="1"></stop><stop offset="86.66666666666667%" stop-color="#00593b" stop-opacity="1"></stop></linearGradient></defs><defs><linearGradient id="grad2_6" x1="0%" y1="0%" x2="54.5%" y2="100%"><stop offset="13.333333333333334%" stop-color="#00351b" stop-opacity="1"></stop><stop offset="86.66666666666667%" stop-color="#000000" stop-opacity="1"></stop></linearGradient></defs><g transform="translate(1980, 0)"><path d="M0 432C-23.2 400.4 -46.5 368.8 -71.4 359C-96.3 349.1 -122.9 361.1 -150.8 364C-178.6 367 -207.8 360.9 -231.1 345.9C-254.4 330.9 -272 306.9 -280.7 280.7C-289.5 254.5 -289.5 226.1 -312.6 208.9C-335.8 191.7 -382.2 185.7 -399.1 165.3C-416 145 -403.5 110.3 -404.1 80.4C-404.7 50.4 -418.3 25.2 -432 0L0 0Z" fill="#002909"></path><path d="M0 370.3C-19.9 343.2 -39.8 316.1 -61.2 307.7C-82.6 299.3 -105.4 309.5 -129.2 312C-153.1 314.5 -178.1 309.3 -198.1 296.5C-218.1 283.6 -233.1 263.1 -240.6 240.6C-248.1 218.2 -248.1 193.8 -268 179.1C-287.8 164.3 -327.6 159.1 -342.1 141.7C-356.6 124.3 -345.9 94.6 -346.4 68.9C-346.8 43.2 -358.6 21.6 -370.3 0L0 0Z" fill="#00462b"></path><path d="M0 308.6C-16.6 286 -33.2 263.4 -51 256.4C-68.8 249.4 -87.8 257.9 -107.7 260C-127.6 262.1 -148.4 257.8 -165.1 247.1C-181.7 236.3 -194.3 219.2 -200.5 200.5C-206.8 181.8 -206.8 161.5 -223.3 149.2C-239.9 136.9 -273 132.6 -285.1 118.1C-297.2 103.6 -288.2 78.8 -288.6 57.4C-289 36 -298.8 18 -308.6 0L0 0Z" fill="#006c4c"></path><path d="M0 246.9C-13.3 228.8 -26.6 210.7 -40.8 205.1C-55 199.5 -70.2 206.3 -86.2 208C-102.1 209.7 -118.7 206.2 -132.1 197.7C-145.4 189.1 -155.4 175.4 -160.4 160.4C-165.4 145.4 -165.4 129.2 -178.6 119.4C-191.9 109.5 -218.4 106.1 -228.1 94.5C-237.7 82.8 -230.6 63 -230.9 45.9C-231.2 28.8 -239 14.4 -246.9 0L0 0Z" fill="#009470"></path><path d="M0 185.1C-10 171.6 -19.9 158.1 -30.6 153.8C-41.3 149.6 -52.7 154.7 -64.6 156C-76.6 157.3 -89.1 154.7 -99.1 148.2C-109 141.8 -116.6 131.5 -120.3 120.3C-124.1 109.1 -124.1 96.9 -134 89.5C-143.9 82.1 -163.8 79.6 -171 70.9C-178.3 62.1 -172.9 47.3 -173.2 34.4C-173.4 21.6 -179.3 10.8 -185.1 0L0 0Z" fill="#00be97"></path><path d="M0 123.4C-6.6 114.4 -13.3 105.4 -20.4 102.6C-27.5 99.8 -35.1 103.2 -43.1 104C-51 104.8 -59.4 103.1 -66 98.8C-72.7 94.5 -77.7 87.7 -80.2 80.2C-82.7 72.7 -82.7 64.6 -89.3 59.7C-95.9 54.8 -109.2 53 -114 47.2C-118.9 41.4 -115.3 31.5 -115.5 23C-115.6 14.4 -119.5 7.2 -123.4 0L0 0Z" fill="#00e9bf"></path><path d="M0 61.7C-3.3 57.2 -6.6 52.7 -10.2 51.3C-13.8 49.9 -17.6 51.6 -21.5 52C-25.5 52.4 -29.7 51.6 -33 49.4C-36.3 47.3 -38.9 43.8 -40.1 40.1C-41.4 36.4 -41.4 32.3 -44.7 29.8C-48 27.4 -54.6 26.5 -57 23.6C-59.4 20.7 -57.6 15.8 -57.7 11.5C-57.8 7.2 -59.8 3.6 -61.7 0L0 0Z" fill="#00ffd4"></path></g><g transform="translate(0, 1080)"><path d="M0 -432C26.7 -413.1 53.4 -394.1 74.9 -376.6C96.4 -359.1 112.8 -343.1 142.7 -344.6C172.7 -346.1 216.4 -365.2 233.9 -350C251.4 -334.9 242.9 -285.4 266.6 -266.6C290.3 -247.7 346.2 -259.5 359.2 -240C372.2 -220.5 342.3 -169.8 329.8 -136.6C317.4 -103.5 322.4 -87.9 342.3 -68.1C362.2 -48.3 397.1 -24.1 432 0L0 0Z" fill="#002909"></path><path d="M0 -370.3C22.9 -354 45.8 -337.8 64.2 -322.8C82.7 -307.8 96.7 -294.1 122.3 -295.4C148 -296.7 185.4 -313.1 200.5 -300C215.5 -287 208.2 -244.6 228.5 -228.5C248.8 -212.3 296.7 -222.4 307.9 -205.7C319 -189 293.4 -145.5 282.7 -117.1C272 -88.7 276.3 -75.4 293.4 -58.4C310.5 -41.4 340.4 -20.7 370.3 0L0 0Z" fill="#00462b"></path><path d="M0 -308.6C19.1 -295 38.1 -281.5 53.5 -269C68.9 -256.5 80.5 -245.1 102 -246.1C123.4 -247.2 154.5 -260.9 167.1 -250C179.6 -239.2 173.5 -203.9 190.4 -190.4C207.3 -177 247.3 -185.4 256.6 -171.4C265.9 -157.5 244.5 -121.3 235.6 -97.6C226.7 -73.9 230.3 -62.8 244.5 -48.6C258.7 -34.5 283.7 -17.2 308.6 0L0 0Z" fill="#006c4c"></path><path d="M0 -246.9C15.3 -236 30.5 -225.2 42.8 -215.2C55.1 -205.2 64.4 -196 81.6 -196.9C98.7 -197.8 123.6 -208.7 133.7 -200C143.7 -191.4 138.8 -163.1 152.3 -152.3C165.9 -141.6 197.8 -148.3 205.3 -137.1C212.7 -126 195.6 -97 188.5 -78.1C181.4 -59.1 184.2 -50.2 195.6 -38.9C207 -27.6 226.9 -13.8 246.9 0L0 0Z" fill="#009470"></path><path d="M0 -185.1C11.4 -177 22.9 -168.9 32.1 -161.4C41.3 -153.9 48.3 -147 61.2 -147.7C74 -148.3 92.7 -156.5 100.2 -150C107.8 -143.5 104.1 -122.3 114.2 -114.2C124.4 -106.2 148.4 -111.2 153.9 -102.9C159.5 -94.5 146.7 -72.8 141.4 -58.6C136 -44.3 138.2 -37.7 146.7 -29.2C155.2 -20.7 170.2 -10.3 185.1 0L0 0Z" fill="#00be97"></path><path d="M0 -123.4C7.6 -118 15.3 -112.6 21.4 -107.6C27.6 -102.6 32.2 -98 40.8 -98.5C49.3 -98.9 61.8 -104.4 66.8 -100C71.8 -95.7 69.4 -81.5 76.2 -76.2C82.9 -70.8 98.9 -74.1 102.6 -68.6C106.3 -63 97.8 -48.5 94.2 -39C90.7 -29.6 92.1 -25.1 97.8 -19.5C103.5 -13.8 113.5 -6.9 123.4 0L0 0Z" fill="#00e9bf"></path><path d="M0 -61.7C3.8 -59 7.6 -56.3 10.7 -53.8C13.8 -51.3 16.1 -49 20.4 -49.2C24.7 -49.4 30.9 -52.2 33.4 -50C35.9 -47.8 34.7 -40.8 38.1 -38.1C41.5 -35.4 49.5 -37.1 51.3 -34.3C53.2 -31.5 48.9 -24.3 47.1 -19.5C45.3 -14.8 46.1 -12.6 48.9 -9.7C51.7 -6.9 56.7 -3.4 61.7 0L0 0Z" fill="#00ffd4"></path></g></svg>